<?xml version="1.0" standalone="no"?>
<!DOCTYPE svg PUBLIC "-//W3C//DTD SVG 20010904//EN"
 "http://www.w3.org/TR/2001/REC-SVG-20010904/DTD/svg10.dtd">
<svg version="1.0" xmlns="http://www.w3.org/2000/svg"
 width="529.000000pt" height="174.000000pt" viewBox="0 0 529.000000 174.000000"
 preserveAspectRatio="xMidYMid meet">

<g transform="translate(0.000000,174.000000) scale(0.100000,-0.100000)"
fill="#000000" stroke="none">
<path d="M592 1706 c-19 -6 -45 -22 -58 -35 l-24 -23 32 -17 c39 -19 74 -68
89 -125 l11 -41 23 51 c24 55 64 92 107 101 35 7 35 17 3 49 -50 50 -117 65
-183 40z"/>
<path d="M321 1661 c-20 -5 -22 -8 -9 -19 38 -31 46 -167 22 -364 -4 -30 0
-67 11 -104 14 -49 27 -68 88 -126 69 -65 129 -97 161 -85 7 3 31 44 55 93 42
85 43 90 39 168 -3 65 -10 93 -35 141 -16 33 -38 86 -47 117 -21 70 -55 113
-104 129 -20 7 -48 20 -62 30 -29 20 -85 30 -119 20z"/>
<path d="M874 1621 c-12 -5 -25 -14 -29 -20 -3 -6 -23 -11 -43 -11 -53 0 -80
-23 -113 -97 l-29 -63 19 -43 c27 -58 45 -168 37 -222 -4 -24 -17 -59 -29 -77
-51 -75 -76 -128 -61 -128 68 0 243 144 263 215 6 22 11 94 11 160 0 143 11
189 56 231 27 26 31 34 20 44 -20 15 -77 22 -102 11z"/>
<path d="M1530 881 l0 -220 -22 -4 c-13 -2 13 -4 57 -4 44 0 70 2 58 4 l-23 4
0 220 0 219 -35 0 -35 0 0 -219z"/>
<path d="M3580 881 l0 -220 -22 -4 c-13 -2 13 -4 57 -4 44 0 69 2 57 4 -23 5
-24 7 -20 103 4 115 22 153 76 158 27 3 34 -1 43 -25 6 -15 9 -73 7 -128 -3
-90 -5 -101 -23 -107 -11 -3 16 -6 60 -6 44 1 70 3 58 5 -22 4 -23 9 -23 96 0
121 -12 161 -50 177 -40 17 -88 6 -122 -27 l-28 -27 0 112 0 112 -35 0 -35 0
0 -219z"/>
<path d="M1173 1063 l27 -4 0 -199 0 -199 -27 -4 c-16 -2 15 -4 67 -4 52 0 83
2 68 4 l-28 4 0 95 0 94 49 0 c49 0 50 -1 54 -32 2 -18 4 -1 4 37 0 39 -2 55
-4 38 -4 -32 -5 -33 -54 -33 l-49 0 0 100 0 100 69 0 c79 0 88 -7 93 -70 l3
-45 11 63 11 62 -161 -1 c-89 -1 -149 -4 -133 -6z"/>
<path d="M3361 1061 c60 -6 99 -31 99 -62 0 -37 16 -26 19 13 1 23 5 46 8 52
4 6 -2 3 -13 -6 -17 -14 -22 -15 -44 -3 -14 8 -47 14 -75 13 l-50 -1 56 -6z"/>
<path d="M3257 1034 c-46 -45 -47 -122 -3 -163 12 -12 61 -37 107 -56 93 -39
113 -57 104 -95 -9 -35 -23 -49 -59 -59 -17 -5 -23 -10 -13 -10 59 -3 113 65
104 132 -7 54 -38 82 -123 114 -40 15 -83 35 -95 44 -30 22 -29 77 2 101 11
10 17 18 11 18 -5 0 -21 -12 -35 -26z"/>
<path d="M467 976 c4 -6 22 -29 40 -52 18 -23 33 -50 33 -61 0 -26 -37 -138
-62 -188 -26 -49 -100 -154 -127 -179 -19 -18 -20 -17 -37 20 -13 28 -18 67
-20 139 -1 112 -9 134 -58 164 -48 30 -61 27 -74 -18 -30 -99 2 -178 79 -196
22 -5 31 -18 48 -64 11 -32 21 -64 21 -72 0 -8 -41 -55 -91 -104 -50 -50 -109
-117 -130 -149 -43 -65 -75 -154 -60 -169 5 -5 12 5 16 25 19 84 66 152 219
308 83 85 168 180 189 212 l37 56 51 -21 50 -21 37 19 c35 19 82 76 82 99 0
12 -125 5 -171 -9 -19 -6 -21 -4 -15 11 5 11 15 49 24 86 l17 67 58 27 c63 31
102 63 53 44 -47 -17 -119 -12 -169 13 -25 13 -43 19 -40 13z"/>
<path d="M1742 920 c-41 -25 -62 -68 -62 -125 0 -82 49 -146 112 -144 23 0 23
0 2 9 -32 12 -47 71 -42 151 6 83 27 119 67 119 15 0 36 -9 45 -19 36 -39 33
-204 -5 -242 -19 -19 -19 -19 1 -19 11 0 37 15 57 34 34 31 37 38 40 97 4 72
-7 101 -50 133 -38 28 -123 31 -165 6z"/>
<path d="M2388 922 l23 -18 -27 -74 c-15 -41 -30 -78 -34 -83 -3 -4 -24 36
-46 88 -21 52 -44 95 -50 95 -6 0 -26 -39 -44 -87 -18 -49 -36 -92 -40 -96 -7
-8 -77 161 -72 176 1 4 -18 7 -43 7 -40 0 -44 -2 -35 -17 6 -10 32 -72 59
-138 26 -65 53 -121 58 -122 6 -2 27 41 48 97 21 55 39 100 40 100 1 0 19 -42
40 -92 39 -97 50 -116 61 -106 3 4 26 62 50 130 25 68 52 129 61 136 13 9 14
12 2 13 -8 0 -27 3 -44 5 l-30 4 23 -18z"/>
<path d="M2552 920 c-78 -48 -84 -205 -9 -250 44 -27 126 -27 159 0 24 18 48
67 27 54 -5 -3 -9 -11 -9 -19 0 -22 -41 -45 -82 -45 -46 0 -65 24 -74 93 l-7
47 92 0 91 0 0 30 c0 44 -19 77 -55 95 -45 21 -93 19 -133 -5z m108 -9 c5 -11
10 -38 10 -60 l0 -41 -55 0 -56 0 7 38 c3 20 13 47 20 60 18 28 59 29 74 3z"/>
<path d="M2808 934 c9 -4 12 -42 12 -139 0 -131 -1 -134 -22 -138 -13 -2 15
-4 62 -4 47 0 73 2 58 4 -28 4 -28 5 -28 82 0 102 7 135 36 166 13 14 19 25
14 25 -5 0 -18 -12 -27 -27 l-18 -27 -5 29 c-5 26 -9 29 -50 31 -25 2 -39 0
-32 -2z"/>
<path d="M2960 930 c0 -5 4 -10 10 -10 16 0 23 -46 10 -69 -9 -18 -8 -21 9
-21 48 0 64 66 24 98 -20 14 -53 16 -53 2z"/>
<path d="M3990 922 c-51 -25 -72 -73 -66 -147 4 -53 9 -64 40 -92 24 -22 45
-33 63 -32 16 1 21 3 11 6 -26 7 -43 63 -43 144 1 91 20 129 63 129 15 0 32
-4 39 -8 20 -13 33 -61 33 -126 0 -77 -15 -125 -44 -136 -21 -9 -21 -9 2 -9
34 -1 78 28 98 64 23 43 16 145 -12 176 -43 48 -123 62 -184 31z"/>
<path d="M4260 931 c0 -19 109 -276 118 -279 5 -1 22 30 37 70 57 150 45 146
94 30 24 -57 48 -101 54 -99 5 1 30 59 54 128 24 68 51 130 60 137 14 10 14
12 2 13 -8 1 -26 2 -41 3 -15 2 -25 -1 -22 -6 3 -4 12 -8 20 -8 8 0 14 -4 14
-8 0 -14 -50 -156 -58 -164 -4 -4 -25 35 -46 87 -22 52 -45 95 -52 95 -6 0
-24 -35 -39 -77 -46 -129 -43 -128 -81 -33 -19 46 -34 91 -34 100 0 12 -11 17
-40 18 -22 2 -40 -2 -40 -7z"/>
<path d="M4792 920 c-79 -48 -83 -189 -7 -248 40 -32 133 -31 162 1 22 25 39
62 23 52 -6 -3 -10 -12 -10 -20 0 -22 -41 -45 -82 -45 -45 0 -63 23 -72 92
l-6 47 93 3 92 3 -4 35 c-4 50 -18 70 -56 86 -48 20 -94 17 -133 -6z m108 -9
c5 -11 10 -38 10 -60 l0 -41 -50 0 -50 0 0 38 c0 21 7 48 16 60 19 27 60 29
74 3z"/>
<path d="M5093 932 l-33 -3 0 -134 c0 -131 -1 -134 -22 -138 -13 -2 15 -4 62
-4 47 0 73 2 58 4 -28 4 -28 4 -28 88 0 102 20 162 57 171 38 10 61 -44 31
-74 -9 -9 -7 -12 9 -12 49 0 69 54 33 90 -28 28 -64 25 -99 -10 l-30 -30 -3
27 c-3 25 -7 28 -35 25z"/>
<path d="M3230 745 c-1 -22 -4 -53 -6 -68 -5 -28 -4 -28 17 -14 19 14 24 14
45 1 12 -9 35 -14 51 -11 l28 4 -30 2 c-45 2 -86 40 -95 87 l-8 39 -2 -40z"/>
<path d="M110 614 c0 -14 24 -51 44 -66 21 -18 67 -22 99 -10 16 7 14 11 -15
32 -18 14 -41 30 -53 37 -20 12 -75 18 -75 7z"/>
</g>
</svg>
